<svg width="100" height="100" viewBox="0 0 100 100" fill="none" xmlns="http://www.w3.org/2000/svg">
<path fill-rule="evenodd" clip-rule="evenodd" d="M20 0C8.95431 0 0 8.9543 0 20V80C0 91.0457 8.9543 100 20 100H80C91.0457 100 100 91.0457 100 80V20C100 8.95431 91.0457 0 80 0H20ZM75 35.9371H25V72.8121C25 78.335 29.4772 82.8121 35 82.8121H65C70.5229 82.8121 75 78.335 75 72.8121V35.9371ZM21.875 24.4372C21.875 23.8849 22.3227 23.4372 22.875 23.4372L42.1875 23.4372V18.1872C42.1875 17.6349 42.6352 17.1872 43.1875 17.1872H56.8125C57.3648 17.1872 57.8125 17.6349 57.8125 18.1872V23.4372L77.125 23.4372C77.6773 23.4372 78.125 23.8849 78.125 24.4372V28.6872C78.125 29.2394 77.6773 29.6872 77.125 29.6872H22.875C22.3227 29.6872 21.875 29.2394 21.875 28.6872V24.4372Z" fill="white"/>
</svg>
