<svg width="100" height="100" viewBox="0 0 100 100" fill="none" xmlns="http://www.w3.org/2000/svg">
<path fill-rule="evenodd" clip-rule="evenodd" d="M0 20C0 8.9543 8.95431 0 20 0H80C91.0457 0 100 8.95431 100 20V80C100 91.0457 91.0457 100 80 100H20C8.9543 100 0 91.0457 0 80V20ZM15.6251 44.75C15.6251 44.1977 16.0728 43.75 16.6251 43.75H43.5484V18.7405C43.5484 18.1882 43.9961 17.7405 44.5484 17.7405H55.4517C56.0039 17.7405 56.4517 18.1882 56.4517 18.7405V43.75H82.367C82.9193 43.75 83.367 44.1977 83.367 44.75V55.6532C83.367 56.2055 82.9193 56.6532 82.367 56.6532H56.4517V84.4824C56.4517 85.0347 56.0039 85.4824 55.4517 85.4824H44.5484C43.9961 85.4824 43.5484 85.0347 43.5484 84.4824V56.6532H16.6251C16.0728 56.6532 15.6251 56.2055 15.6251 55.6532V44.75Z" fill="white"/>
</svg>
