<svg width="100" height="100" viewBox="0 0 100 100" fill="none" xmlns="http://www.w3.org/2000/svg">
<path fill-rule="evenodd" clip-rule="evenodd" d="M0 20C0 8.9543 8.95431 0 20 0H80C91.0457 0 100 8.95431 100 20V80C100 91.0457 91.0457 100 80 100H20C8.9543 100 0 91.0457 0 80V20ZM41.553 50.5643L66.6614 25.4559C67.0519 25.0654 67.0519 24.4322 66.6614 24.0417L58.9516 16.3319C58.5611 15.9414 57.928 15.9414 57.5374 16.3319L24.1446 49.7247C23.811 50.0583 23.7624 50.569 23.9987 50.9542C24.024 51.1698 24.1194 51.3786 24.2847 51.544L57.6776 84.9369C58.0681 85.3274 58.7013 85.3274 59.0918 84.9369L66.8015 77.2271C67.1921 76.8366 67.1921 76.2034 66.8015 75.8129L41.553 50.5643Z" fill="white"/>
</svg>
