<svg width="64" height="64" viewBox="0 0 64 64" fill="none" xmlns="http://www.w3.org/2000/svg">
<path fill-rule="evenodd" clip-rule="evenodd" d="M0 20C0 8.95431 8.95431 0 20 0H44C55.0457 0 64 8.95431 64 20V44C64 55.0457 55.0457 64 44 64H20C8.95431 64 0 55.0457 0 44V20ZM26.5939 32.3612L42.4087 16.5463C42.7993 16.1558 42.7993 15.5226 42.4087 15.1321L37.9836 10.707C37.5931 10.3164 36.9599 10.3164 36.5694 10.707L15.7071 31.5693C15.3929 31.8835 15.3315 32.3548 15.523 32.7304C15.5601 32.9182 15.6513 33.0973 15.7968 33.2427L36.6591 54.105C37.0496 54.4955 37.6828 54.4955 38.0733 54.105L42.4984 49.6799C42.8889 49.2894 42.8889 48.6562 42.4984 48.2657L26.5939 32.3612Z" fill="white"/>
</svg>
