<svg width="100" height="100" viewBox="0 0 100 100" fill="none" xmlns="http://www.w3.org/2000/svg">
<path fill-rule="evenodd" clip-rule="evenodd" d="M0 20C0 8.9543 8.95431 0 20 0H80C91.0457 0 100 8.95431 100 20V80C100 91.0457 91.0457 100 80 100H20C8.9543 100 0 91.0457 0 80V20ZM30.4114 58.5026C30.0215 58.1115 30.0215 57.4775 30.4114 57.0864L68.2792 19.1104C68.6692 18.7194 69.3014 18.7194 69.6914 19.1104L80.7614 30.2121C81.1514 30.6032 81.1514 31.2372 80.7614 31.6283L42.8936 69.6042C42.5037 69.9953 41.8714 69.9953 41.4814 69.6042L30.4114 58.5026ZM23.6789 75.1563C23.5226 75.8611 24.1388 76.4951 24.8454 76.3564L37.355 73.9013C38.1339 73.7485 38.4323 72.7894 37.8783 72.2195L28.1358 62.1962C27.5819 61.6263 26.6183 61.901 26.446 62.678L23.6789 75.1563Z" fill="white"/>
</svg>
