<svg width="64" height="64" viewBox="0 0 64 64" fill="none" xmlns="http://www.w3.org/2000/svg">
<path fill-rule="evenodd" clip-rule="evenodd" d="M0 20C0 8.95431 8.95431 0 20 0H44C55.0457 0 64 8.95431 64 20V44C64 55.0457 55.0457 64 44 64H20C8.95431 64 0 55.0457 0 44V20ZM31.3133 8.6488C31.6987 8.28467 32.3013 8.28467 32.6867 8.6488L49.2247 24.2731C49.8823 24.8944 49.4426 26 48.5379 26H15.4621C14.5574 26 14.1177 24.8944 14.7753 24.2731L31.3133 8.6488ZM17 28C16.4477 28 16 28.4477 16 29V51C16 51.5523 16.4477 52 17 52H47C47.5523 52 48 51.5523 48 51V29C48 28.4477 47.5523 28 47 28H17Z" fill="white"/>
</svg>
