<svg width="100" height="100" viewBox="0 0 100 100" fill="none" xmlns="http://www.w3.org/2000/svg">
<path fill-rule="evenodd" clip-rule="evenodd" d="M0 20C0 8.9543 8.95431 0 20 0H80C91.0457 0 100 8.95431 100 20V80C100 91.0457 91.0457 100 80 100H20C8.9543 100 0 91.0457 0 80V20ZM49.1595 12.9378C49.5449 12.5737 50.1475 12.5737 50.5329 12.9378L77.7879 38.6871C78.4455 39.3084 78.0059 40.414 77.1012 40.414H22.5912C21.6865 40.414 21.2469 39.3084 21.9045 38.6871L49.1595 12.9378ZM25.8462 43.5389C25.2939 43.5389 24.8462 43.9866 24.8462 44.5389V80.0389C24.8462 80.5912 25.2939 81.0389 25.8462 81.0389H73.8462C74.3985 81.0389 74.8462 80.5912 74.8462 80.0389V44.5389C74.8462 43.9866 74.3985 43.5389 73.8462 43.5389H25.8462Z" fill="white"/>
</svg>

